<mxfile host="app.diagrams.net" agent="Mozilla/5.0 (X11; Linux x86_64) AppleWebKit/537.36 (KHTML, like Gecko) Chrome/136.0.0.0 Safari/537.36" version="26.2.15">
  <diagram name="第 1 页" id="AkGlC3xSfhQQKawSLVSH">
    <mxGraphModel dx="1155" dy="2083" grid="1" gridSize="10" guides="1" tooltips="1" connect="1" arrows="1" fold="1" page="0" pageScale="1" pageWidth="827" pageHeight="1169" math="0" shadow="0">
      <root>
        <mxCell id="0" />
        <mxCell id="1" parent="0" />
        <mxCell id="8RFJ2upmh5c0eI3N2pt9-5" value="" style="group" vertex="1" connectable="0" parent="1">
          <mxGeometry x="110" y="-112" width="350" height="140" as="geometry" />
        </mxCell>
        <mxCell id="8RFJ2upmh5c0eI3N2pt9-3" value="" style="rounded=1;whiteSpace=wrap;html=1;fillColor=#dae8fc;strokeColor=#6c8ebf;" vertex="1" parent="8RFJ2upmh5c0eI3N2pt9-5">
          <mxGeometry y="2" width="350" height="138" as="geometry" />
        </mxCell>
        <mxCell id="8RFJ2upmh5c0eI3N2pt9-1" value="g1_29dof_anneal_23dof.yaml&lt;div&gt;&lt;b&gt;机器人配置文件/动作对齐配置文件/定义机器人关节映射关系/设置关节限制和物理参数&lt;/b&gt;&lt;/div&gt;" style="rounded=0;whiteSpace=wrap;html=1;" vertex="1" parent="8RFJ2upmh5c0eI3N2pt9-5">
          <mxGeometry x="29" y="32" width="281" height="42" as="geometry" />
        </mxCell>
        <mxCell id="8RFJ2upmh5c0eI3N2pt9-2" value="g1_29dof_anneal_23dof_fitmotionONLY.xml&lt;br&gt;（动作对齐文件，也就是Mujoco的物理仿真文件）" style="rounded=0;whiteSpace=wrap;html=1;" vertex="1" parent="8RFJ2upmh5c0eI3N2pt9-5">
          <mxGeometry x="29" y="91" width="281" height="40" as="geometry" />
        </mxCell>
        <mxCell id="8RFJ2upmh5c0eI3N2pt9-4" value="机器人的模型文件和配置文件" style="text;strokeColor=none;align=center;fillColor=none;html=1;verticalAlign=middle;whiteSpace=wrap;rounded=0;fontSize=16;fontColor=#CC00CC;" vertex="1" parent="8RFJ2upmh5c0eI3N2pt9-5">
          <mxGeometry x="10" width="220" height="30" as="geometry" />
        </mxCell>
        <mxCell id="8RFJ2upmh5c0eI3N2pt9-16" style="edgeStyle=orthogonalEdgeStyle;curved=1;rounded=0;orthogonalLoop=1;jettySize=auto;html=1;exitX=1;exitY=0.5;exitDx=0;exitDy=0;entryX=0;entryY=0.5;entryDx=0;entryDy=0;fontSize=12;startSize=8;endSize=8;" edge="1" parent="1" source="8RFJ2upmh5c0eI3N2pt9-6" target="8RFJ2upmh5c0eI3N2pt9-2">
          <mxGeometry relative="1" as="geometry" />
        </mxCell>
        <mxCell id="8RFJ2upmh5c0eI3N2pt9-6" value="宇树 G1 URDF" style="rounded=0;whiteSpace=wrap;html=1;fontSize=14;" vertex="1" parent="1">
          <mxGeometry x="-60" y="-20" width="120" height="39" as="geometry" />
        </mxCell>
        <mxCell id="8RFJ2upmh5c0eI3N2pt9-17" value="SMPL模型文件(蒙板文件)也就是动作的数据&lt;br&gt;脚本默认使用SMPL_NEUTRAL.pkl" style="rounded=0;whiteSpace=wrap;html=1;" vertex="1" parent="1">
          <mxGeometry x="139" y="80" width="281" height="50" as="geometry" />
        </mxCell>
        <mxCell id="8RFJ2upmh5c0eI3N2pt9-18" value="fit_smpl_shape.py" style="rounded=1;whiteSpace=wrap;html=1;" vertex="1" parent="1">
          <mxGeometry x="600" y="10" width="230" height="50" as="geometry" />
        </mxCell>
      </root>
    </mxGraphModel>
  </diagram>
</mxfile>
